<svg xmlns="http://www.w3.org/2000/svg" viewBox="0 0 500 500"><linearGradient id="a" y2="20.667" gradientUnits="userSpaceOnUse" x2="248.2" y1="287.33" x1="248.2"><stop offset="0" stop-color="#f5f9e6"/><stop offset="1" stop-color="#a0dae3"/></linearGradient><path d="M221.9 21S-30.69 12 15.15 87.5C32 96 69 99.718 46 122.36 22 131 9 154 26.461 171.98c0 0 41.206 13.525 37.872 38.275S0 239.325 36 273.665s494.76 6.563 447.38-113.05S304.8 28.995 221.9 20.995z" fill="url(#a)"/><path d="M73 131s13.333 40-8.667 66c8-1.333 12.667-2.667 18.667-8-1.333 17.333-3.333 35.333-15.333 48.667 8 2 20-4 24-10-3.333 14-6 33.334-18.667 46 35.33-18.67 108-54.67 108-54.67v-21.333l-36-14.333s-21.333 5-36.667-14.333c8.667-2.667 13.333-3.538 18.667-13.769-10 2.43-30.667 10.43-54-24.24z" fill="#020202"/><linearGradient id="b" y2="201.07" gradientUnits="userSpaceOnUse" x2="179" y1="201.07" x1="67.666"><stop offset="0" stop-color="#225c2e"/><stop offset="1" stop-color="#3d8c41"/></linearGradient><path d="M78.333 143s6 38-10.667 49.333c10-2 13.333-5.333 18-12 2 8 0 38.667-14.667 56.667 14.667-5.333 17.333-9.333 22.667-15.333 2 8.667-2 27.63-7.333 37.482C107 246.329 179 222.999 179 222.999v-26.667l-32-9.33s-21.333 8.667-41.333-18c4.667-2.667 8.667-1.436 12-8.385-8 1.05-15.34 4.38-39.337-17.62z" fill="url(#b)"/><g><path d="M248.67 49.333s-13 37.667-37 55.667c8 2.667 10.833 2 20.083 0-4.083 8.667-19.417 30-37.417 33.333s5.34 40.67 5.34 40.67l26.63 8s-1.63 12.667-2.296 25c5 1 17.308 0 17.308 0s-2.307-9-1.974-23.333c0-6.333.333-8.333.333-8.333s7.667 11 18.667 14.333 39.334 5 55.334 0c-5-2.333-27-6.333-42-44 9.333 2 21 3 28-.667-6.667-3.333-34.333-11.334-41-40.667 10 .667 20-.667 22-6.667-5.67-1.99-21.09-2.993-32-53.327z"/><linearGradient id="c" y2="127.98" gradientUnits="userSpaceOnUse" x2="303.67" y1="127.98" x1="194.89"><stop offset="0" stop-color="#267d47"/><stop offset="1" stop-color="#22a84a"/></linearGradient><path d="M247 61.333s-4.667 24.667-29.333 42c6 .667 11.333 0 19-3.333-2 7.333-9.333 30.667-41 43-3 7.667 3.667 40.333 3.667 40.333h40.333s15.151 9.333 27.409 10.333 26.258 2 36.591-1.333c-5-2-28.182-14-36.591-44.667 5.92 1.34 17.28 3.67 25.77 2.34-11.846-4-34.512-12-38.179-46 7.333 1.667 12.667 4.333 20.667.667-5.34-3-25.34-15.337-28.34-43.337z" fill="url(#c)"/><g><linearGradient id="d" y2="195.39" gradientUnits="userSpaceOnUse" x2="238.33" y1="195.39" x1="226.33"><stop offset="0" stop-color="#2d190d"/><stop offset="1" stop-color="#72411a"/></linearGradient><path d="M228.67 185.33s-1.667 14.333-2.333 20.333c3 .333 5.333-.667 10 0 0-3.667-.333-16 2-20.333-4.34-.66-9.67 0-9.67 0z" fill="url(#d)"/></g></g><g><path d="M165.67 57.667s-14.667 48.667-34.667 64.667c9.333 0 18-4.667 24-10-2.667 10-14 49.333-37.333 66 13.333-.667 24.667-3.334 34.667-12.667-6 16-22.667 40.667-41.333 47.333 12.667 2.667 44.667-1 60.667-10.333 2.833 5.833 4 11.078 4 11.078h12s-3.333-2.744 0-17.411c9.333 1.333 46 5.333 62.333-18 3-3.333-3.75-3.333-3.75-3.333s-25.26 1.33-43.26-16c19.333-.667 25.333-1.333 33.333-6.667-8.667 0-37.334-7.333-50.667-44 10-.667 14 0 23.333-5.333-11.32-4-35.99-21.333-43.32-45.333z"/><linearGradient id="e" y2="139.34" gradientUnits="userSpaceOnUse" x2="250" y1="139.34" x1="121"><stop offset="0" stop-color="#468c40"/><stop offset="1" stop-color="#5fbb46"/></linearGradient><path d="M167 68.333s-13.333 38.666-28 49.333c10-3.333 13.333-6.667 18.667-10.667-.667 6.667-4 38.667-28.667 64.667 12-2.667 24-12 31.333-16.667-2.667 10.667-14 41.333-39.333 55.333 10.667 0 28 .667 50-11.333-2.667-6-4.667-12-4.667-12s9.333 2 21.333-3.333v10s27.333 7.333 62.333-14.667c-5-3.333-24.333 4.667-52.333-21.333 7.333-.667 21.926-2 28.63-3.333-13.296-4-36.63-12.667-46.63-54 4 1.333 12.667 4 19.333 2.667-9.32-4.01-19.99-9.343-31.99-34.677z" fill="url(#e)"/><g><linearGradient id="f" y2="198.62" gradientUnits="userSpaceOnUse" x2="185.5" y1="198.62" x1="169.25"><stop offset="0" stop-color="#432810"/><stop offset=".45" stop-color="#663b1a"/><stop offset=".805" stop-color="#80461e"/><stop offset="1" stop-color="#8a4a20"/></linearGradient><path d="M169.25 188.5s11.75.5 16.25-1.5c-.667 6-2.75 16.5-.75 21.75-3.25.75-7.75 1.5-7.75 1.5s-4.21-9.18-7.75-21.75z" fill="url(#f)"/></g></g><g><path d="M331.67 228s-12.999-28 12.667-29.333c-.334-5.667-.334-8 4.666-11.667s12.666-2.667 16 2.333c3.667-1.667 7.667-3.334 12.667-1.667s6.666 3.773 8.333 7.72c2.334-.387 2.668-1.132 5.334-.759 1-3.627 4.332-8.7 10.666-9.831s10.333.537 13 3.537c4-2 9.666-3.593 15-3.296s11.333 3.736 11 10.35c4.334 1.28 9.333.946 12 5.28s4.334 14.667-4.666 19.667c2.333 1.333 3.666 2.667 3.666 4.667 3-1.667 9.334-6 15.334-.667s7.332 7.333 6.666 11.667c3.667 1.333 9.334 3 11.334 9s-.668 15-5.334 16c4.334 2 6.334 2.999 7.667 8.333s-4.333 12.668-8.333 13.334c.333 2.666.667 8.294-2 12.313s-10 12.896-25 13.958c-7.35-8.6-66.02-55.26-120.68-80.93z" fill="#020202"/><linearGradient id="g" y2="212.39" gradientUnits="userSpaceOnUse" x2="404.33" y1="212.39" x1="333.46"><stop offset="0" stop-color="#249947"/><stop offset="1" stop-color="#249947"/></linearGradient><path d="M337.67 228.67s-6.001-10.652-3.667-18.326 10-12.007 15.667-8.34c-.667-5.333-.667-10.667 4-11.667s6.333 2.255 7.333 4.294c-1 2.706-.667 5.372 0 7.039 1.334-4 6.667-12.039 11.667-11.52s8.333 1.186 10 7.52c-1.667 2.667-2.333 5.807-2 8.07 2.667-3.737 7.667-8.403 13-7.737s8.999 3.474 10.333 7.737-1.667 9.597-4 11.263c-4.666 1-11.334 1.333-13 5.667-2.333-3-6.332-4-11.666-1.667s-9 5.667-10 13.667c-7-1.66-27.66-5.99-27.66-5.99z" fill="url(#g)"/><linearGradient id="h" y2="238.03" gradientUnits="userSpaceOnUse" x2="416.04" y1="238.03" x1="368.89"><stop offset="0" stop-color="#5fbb46"/><stop offset="1" stop-color="#5fbb46"/></linearGradient><path d="M368.9 238s1.104-13.333 7.771-14.667 9 3.667 9 7.333c2.667-4.667 6.001-12.333 12.667-10.333 4 1.667 5.666 1.333 7.333 5-2 1.667-2.001.674-2.667 3.67 3-.337 6-2.33 9 0s3.667 5.996 1.667 8.996c2.333 1.333 4.667 6.667-2 10.333 1.667 1.667 3 1.667 3 1.667s3.666 6.667-5.667 6-40.1-18-40.1-18z" fill="url(#h)"/><linearGradient id="i" y2="204.34" gradientUnits="userSpaceOnUse" x2="452.71" y1="204.34" x1="398"><stop offset="0" stop-color="#225c2e"/><stop offset="1" stop-color="#225c2e"/></linearGradient><path d="M398 195.39s1.001-5.474 8.334-5.264 8.418.65 9.709 5.264c2.957-3.053 4.291-6.72 9.291-6.72s7.999 1.72 9.666 3.36 3 3.36 3 3.36-2.999 3.28-1.666 6.947c2.666-2.667 4.332-4.667 9.666-3.333s6.334 5.333 6.667 8.333-1 10.681-9 12.674c-2.667-1.674-4.334-2.326-8.667 0-1-4.007-1.667-12.534-8-14.271S410.33 208 410.33 208s1.67-8.23-12.33-12.61z" fill="url(#i)"/><linearGradient id="j" y2="243.08" gradientUnits="userSpaceOnUse" x2="483.38" y1="243.08" x1="404.33"><stop offset="0" stop-color="#249947"/><stop offset="1" stop-color="#249947"/></linearGradient><path d="M410 210.34s.323 5.674-5.672 9.667c2.339 1.326 1.942 1.398 2.838 4.659 4.501.333 8.251 1.667 8.876 6.333s0 7.027 0 7.027 2.292 1.972 2.625 3.639-1.249 5-2.625 6.667c1.958 1.667 1.459 8.833-2.375 9.5 4.833 2.667 13.166 8.5 13.166 8.5s6-9.333 12-9.333 12.667.334 16.167 5.167c4.5-.667 8.833-1 11.5.833s5.501 3.834 5.667 6.667-.333 4.999-1.5 6.166c2.5.5 4.833 1.001 5.333 2.834 4-.334 8-3.501 7-9.334s-4.333-6.832-7.5-7.166c2.833-2.167 9.144-4.333 7.655-12.833-1.488-8.5-11.988-8.333-14.488-7.5s-4 1-4 1 .833-2 2.833-3.333c1.833-2.833 3-9.333-2-12.5s-13.667-2.5-16 4.667c-2.5.5-3 0-3.5.833.667-3.167.333-3 1.833-5-1.5-2-7.667-10.167-17-3 .5-5.667-.167-13.167-4-15.333s-12.68-2.68-16.85 1.15z" fill="url(#j)"/><linearGradient id="k" y2="280.5" gradientUnits="userSpaceOnUse" x2="474.9" y1="280.5" x1="427.17"><stop offset="0" stop-color="#5fbb46"/><stop offset="1" stop-color="#5fbb46"/></linearGradient><path d="M427.17 272.83s4.166-11.334 8.333-12.5 10.833-4.5 17 5c-1 3.167-.833 5.5 0 7.5.833-3.833 3.167-9.166 8-8.333s6.223.57 9.167 6.167c.333 3.333-1.334 5.666-1.334 5.666s-4.5 1.501-4.833 5.334c3-1.5 4.499-3.833 7.333-3s2.5 2 2.5 2-1.666-.667-2.666 1.833c1.333-.167 3.499.167 3.666 2s2 8.834-2 12.167-9 5.834-13.5 5.5c-4.67-5-31.67-29.34-31.67-29.34z" fill="url(#k)"/></g><g><path d="M15.153 334.46s50.77-131.54 221.54-127.69 237.69 106.92 245.38 117.69c-6.923 15.384-13.847 33.076-112.31 43.076-23.077 2.308-66.155 4.616-49.231 23.847 6.924 6.153 10.001 13.076-6.153 19.23s-68.46 16.92-105.38 16.92-96.923-1.539-121.54-30c-7.692-10.769-9.231-13.845-7.692-20.769s-.768-10.77-13.845-19.23-35.616-20.77-50.77-23.08z"/><linearGradient id="l" y2="208.62" gradientUnits="userSpaceOnUse" x2="361.95" y1="435.67" x1="134.9"><stop offset="0" stop-color="#66bc46"/><stop offset="1" stop-color="#acd037"/></linearGradient><path d="M26.461 327.23s61-118.92 209.46-118.15 226.93 96.15 235.39 116.15c-5.385 10-25.384 30-76.153 35.385s-81.539 9.231-86.154 21.539c-.77 7.691 6.154 12.308 6.154 12.308s13.847 6.154-5.385 14.615-69.24 16.92-120.78 12.3-83.077-10.769-100-32.308c-9.231-10 1.83-12.106-1.539-20.77-5.384-13.84-37.923-30.3-61-41.07z" fill="url(#l)"/></g><g><path d="M222 305.67s-2.333-9.667 15.667-12.334c15.395-2.281 32.352-1.289 32.333 4.667.334 5.333-3.999 8.333-8.666 10s-37.33 6.99-39.33-2.34z"/><linearGradient id="m" y2="300.87" gradientUnits="userSpaceOnUse" x2="265.63" y1="300.87" x1="226.3"><stop offset="0" stop-color="#666"/><stop offset="1" stop-color="#ccc"/></linearGradient><path d="M228.25 306.75s9.75-10 35-5c1.75-1.25 6.25-5.5-5-6.5s-23.25 1-26.5 2.5-8.25 7.25-3.5 9z" fill="url(#m)"/><linearGradient id="n" y2="305.72" gradientUnits="userSpaceOnUse" x2="260.75" y1="305.72" x1="231.75"><stop offset="0" stop-color="#666"/><stop offset="1" stop-color="#2e2e2e"/></linearGradient><path d="M231.75 308s13.25-9.25 29-3.75c-3 1.75-13.5 6.75-29 3.75z" fill="url(#n)"/></g><g><path d="M241.31 155.23s7.692 79.23 0 154.62c5.385 0 3.538 1.538 8.692 0-1-29.23-2.308-57.691-4.346-123.85 12.577-4.615 20.268-8.462 47.192-15.385-13.07-4.62-26.15-10-51.53-15.39z"/><linearGradient id="o" y2="171.97" gradientUnits="userSpaceOnUse" x2="287" y1="171.97" x1="245.15"><stop offset="0" stop-color="#f04f36"/><stop offset="1" stop-color="#f04f36"/></linearGradient><path d="M245.15 160.62s.726 11.359 1 22.718c4.85-2.01 30.85-11.67 40.85-13.34-16.11-4.69-31-7.67-41.85-9.38z" fill="url(#o)"/></g><g><circle cy="115.5" cx="366" r="30"/><linearGradient id="p" y2="114.5" gradientUnits="userSpaceOnUse" x2="339" y1="114.5" x1="393"><stop offset="0" stop-color="#e45025"/><stop offset=".218" stop-color="#e57925"/><stop offset=".275" stop-color="#e7832b"/><stop offset=".527" stop-color="#efb052"/><stop offset=".741" stop-color="#f5d273"/><stop offset=".905" stop-color="#f9e888"/><stop offset="1" stop-color="#fbf391"/></linearGradient><circle cy="114.5" cx="366" r="27" fill="url(#p)"/><g fill="#0B0B0B"><path d="M353.67 101.33s-2.918.167-3.418 3.417c0 4 3.086 3.625 3.418 3.625s2.957-.375 3.082-3c-.125-1.375-1-1.5-1-1.5s.5.625 0 1.625-3.125 2.25-3.625.25-.78-2.58 1.55-4.42zM360.67 110.98s-2.918.167-3.418 3.417c0 4 3.086 3.625 3.418 3.625s2.957-.375 3.082-3c-.125-1.375-1-1.5-1-1.5s.5.625 0 1.625-3.125 2.25-3.625.25-.78-2.58 1.55-4.41zM350.42 111.98s-2.918.167-3.418 3.417c0 4 3.086 3.625 3.418 3.625s2.957-.375 3.082-3c-.125-1.375-1-1.5-1-1.5s.5.625 0 1.625-3.125 2.25-3.625.25-.79-2.58 1.54-4.41zM357.42 120.22s-2.918.167-3.418 3.417c0 4 3.086 3.625 3.418 3.625s2.957-.375 3.082-3c-.125-1.375-1-1.5-1-1.5s.5.625 0 1.625-3.125 2.25-3.625.25-.79-2.57 1.54-4.41zM344.58 104.86s-2.29.131-2.683 2.682c0 3.14 2.423 2.846 2.683 2.846.261 0 2.322-.294 2.42-2.355-.098-1.08-.785-1.178-.785-1.178s.393.491 0 1.276-2.453 1.766-2.846.196c-.39-1.58-.62-2.04 1.21-3.48zM348.46 122.36s-2.29.131-2.683 2.682c0 3.14 2.423 2.846 2.683 2.846.261 0 2.322-.294 2.42-2.355-.098-1.08-.785-1.178-.785-1.178s.393.491 0 1.276-2.453 1.766-2.846.196c-.4-1.58-.63-2.04 1.21-3.48zM358.83 132.36s-2.29.131-2.683 2.682c0 3.14 2.423 2.846 2.683 2.846.261 0 2.322-.294 2.42-2.355-.098-1.08-.785-1.178-.785-1.178s.393.491 0 1.276-2.453 1.766-2.846.196c-.38-1.58-.61-2.04 1.22-3.48zM366.13 134.55s-2.29.131-2.683 2.682c0 3.14 2.423 2.846 2.683 2.846.261 0 2.322-.294 2.42-2.355-.098-1.08-.785-1.178-.785-1.178s.393.491 0 1.276-2.453 1.766-2.846.196c-.38-1.58-.61-2.04 1.22-3.47z"/></g></g></svg>